<svg width="10" height="6" viewBox="0 0 10 6" fill="none" xmlns="http://www.w3.org/2000/svg" style="transform: rotate(180deg);">
    <path d="M5.06673 4.36678C5.85244 3.52869 6.63815 2.69059 7.37149 1.90488C7.79053 1.43345 8.26196 0.962018 8.68101 0.49059C8.73339 0.385828 8.83815 0.333447 8.94292 0.281066C9.15244 0.176304 9.41434 0.228685 9.57149 0.385828C9.72863 0.595352 9.78101 0.857256 9.62387 1.06678C9.62387 1.17154 9.57149 1.22392 9.51911 1.2763C8.20958 2.69059 6.90006 4.10488 5.59053 5.51916C5.27625 5.88583 4.96196 5.88583 4.5953 5.51916C3.28577 4.10488 1.97625 2.69059 0.666726 1.2763C0.404821 1.0144 0.404821 0.700113 0.614345 0.438209C0.771488 0.228685 1.13815 0.176304 1.34768 0.333447C1.45244 0.385828 1.5572 0.49059 1.60958 0.595352C2.76196 1.80011 3.86196 3.00488 5.01434 4.26202C5.01434 4.26202 5.06673 4.3144 5.06673 4.36678Z" fill="#D93831"/>
</svg>
