<svg width="24" height="24" viewBox="0 0 19 19" fill="none" xmlns="http://www.w3.org/2000/svg">
    <path d="M9.10621 18.1C3.82236 17.9876 0 14.0528 0 9.10621C0 3.93478 4.15963 0 9.10621 0C14.1652 0 18.2124 4.15963 18.2124 9.10621C18.1 14.2776 14.1652 17.9876 9.10621 18.1ZM14.5025 14.3901C16.1888 12.5913 16.8634 10.4553 16.5261 7.98199C16.1888 5.5087 14.8398 3.59752 12.7037 2.47329C10.6801 1.34907 8.5441 1.23665 6.40807 2.0236C3.59751 3.14783 1.91118 5.28385 1.57391 8.31925C1.34907 10.118 1.79876 11.6919 2.81056 13.1534C3.14783 13.6031 3.48509 13.9404 3.82236 14.3901C4.0472 14.1652 4.27205 13.9404 4.38447 13.7155C5.17143 12.9286 6.07081 12.3665 7.08261 12.0292C7.75714 11.8043 8.43168 11.6919 9.10621 11.6919C9.66832 11.6919 10.2304 11.9168 10.7925 12.0292C11.3547 12.1416 11.9168 12.3665 12.4789 12.8161C13.2658 13.2658 13.9404 13.828 14.5025 14.3901Z" fill="currentColor"/>
    <path d="M12.7037 7.64472C12.7037 9.5559 11.1298 11.2422 9.10621 11.2422C7.08261 11.2422 5.5087 9.66832 5.5087 7.75714C5.5087 5.84596 7.08261 4.15962 9.10621 4.15962C11.0174 4.15962 12.7037 5.73354 12.7037 7.64472Z" fill="currentColor"/>
</svg>
