<svg width="13" height="13" viewBox="0 0 13 13" fill="none" xmlns="http://www.w3.org/2000/svg">
  <path d="M2.8 0.7C3 0.2 3.2 0 3.5 0C3.9 0 4.1 0.2 4.2 0.7C4.7 0.7 5.1 0.7 5.6 0.7C5.8 0.2 6 0 6.4 0C6.8 0 7 0.2 7.1 0.7C7.6 0.7 8 0.7 8.5 0.7C8.6 0.2 8.8 0 9.1 0C9.4 0 9.7 0.2 9.8 0.7C10.2 0.7 10.5 0.7 10.9 0.7C11.7 0.7 12.4 1.3 12.5 2C12.5 2.1 12.5 2.3 12.5 2.5C12.5 5.3 12.5 8.1 12.5 10.9C12.5 12 11.8 12.7 10.7 12.7C7.7 12.7 4.6 12.7 1.6 12.7C0.7 12.7 0 12 0 10.9C0 8.1 0 5.3 0 2.5C0 1.6 0.6 0.9 1.4 0.8C1.7 0.8 2.1 0.8 2.4 0.8C2.6 0.7 2.7 0.7 2.8 0.7ZM1.4 4.9C1.4 5 1.4 5 1.4 5.1C1.4 7 1.4 8.9 1.4 10.8C1.4 11.1 1.5 11.2 1.8 11.2C4.8 11.2 7.8 11.2 10.8 11.2C11.1 11.2 11.2 11.1 11.2 10.8C11.2 8.9 11.2 7 11.2 5.1C11.2 5 11.2 5 11.2 4.9C8 4.9 4.7 4.9 1.4 4.9ZM2.8 2.1C2.4 2.1 2.1 2.1 1.7 2.1C1.5 2.1 1.4 2.2 1.4 2.4C1.4 2.8 1.4 3.2 1.4 3.5C4.7 3.5 8 3.5 11.3 3.5C11.3 3.1 11.3 2.8 11.3 2.4C11.3 2.2 11.2 2.1 11 2.1C10.6 2.1 10.3 2.1 9.9 2.1C9.7 2.6 9.5 2.8 9.1 2.8C8.7 2.8 8.5 2.5 8.4 2.1C7.9 2.1 7.5 2.1 7 2.1C6.9 2.6 6.7 2.8 6.4 2.8C6 2.8 5.8 2.7 5.6 2.1C5.1 2.1 4.7 2.1 4.2 2.1C4.2 2.6 3.9 2.8 3.6 2.8C3.2 2.8 3 2.6 2.8 2.1Z" fill="black"/>
</svg>
