<svg width="122" height="90" viewBox="0 0 122 90" fill="none" xmlns="http://www.w3.org/2000/svg">
    <path d="M118.765 42.743L118.609 30.498H16.9863L17.1422 42.433C17.1422 42.743 17.1422 42.433 17.1422 42.743C17.298 44.448 18.7008 46.3079 21.3505 47.7029L59.2251 69.5578C64.2127 72.5028 72.0058 72.8128 76.37 70.3328L115.959 47.5479C117.985 46.3079 119.076 44.603 118.765 42.743Z" fill="#D93831"/>
    <path d="M118.765 42.743L118.609 30.498H16.9863L17.1422 42.433C17.1422 42.743 17.1422 42.433 17.1422 42.743C17.298 44.448 18.7008 46.3079 21.3505 47.7029L59.2251 69.5578C64.2127 72.5028 72.0058 72.8128 76.37 70.3328L115.959 47.5479C117.985 46.3079 119.076 44.603 118.765 42.743Z" fill="#D93831"/>
    <path d="M68.8886 72.6577C71.85 72.6577 74.4996 72.0376 76.6817 70.9527L116.271 48.1678C118.609 46.7728 119.856 44.9128 119.544 42.7428L119.388 30.8079L16.207 29.8779L16.3629 42.4329C16.3629 42.5879 16.3629 42.7428 16.3629 42.8978C16.6746 44.9128 18.2332 46.9278 20.8829 48.3228L58.7575 70.1777C61.7189 71.8827 65.3037 72.6577 68.8886 72.6577ZM117.985 31.1179L118.141 42.7428C118.297 44.2928 117.362 45.8428 115.491 46.9278L75.9024 69.7127C71.6941 72.1926 64.3686 71.8826 59.381 68.9377L21.5064 47.0828C19.3243 45.8428 17.9215 44.1378 17.6098 42.5878V42.4329L17.4539 31.1179H117.985V31.1179Z" fill="#1A1A1A"/>
    <path d="M115.649 35.6137L76.0599 58.3986C71.6957 60.8785 64.0585 60.5685 58.915 57.6236L21.0403 35.7687C16.0527 32.8237 15.4293 28.4838 19.7935 26.0038L59.3826 3.21895C63.7467 0.738963 71.384 1.04896 76.5274 3.99394L114.402 25.8488C119.546 28.6388 120.013 33.1337 115.649 35.6137Z" fill="#D93831"/>
    <path d="M116.116 40.1079L76.5267 62.8927C72.1625 65.3727 64.5252 65.0627 59.3818 62.1177L21.5072 40.2629C16.5196 37.3179 15.8961 32.9779 20.2602 30.4979L59.8494 7.71309C64.2135 5.2331 71.8508 5.5431 76.9943 8.48808L114.869 30.3429C120.012 33.2879 120.48 37.6279 116.116 40.1079Z" fill="white"/>
    <path d="M68.7331 60.7215C71.6945 60.7215 74.3442 60.1015 76.5263 59.0165L116.115 36.2317C118.297 34.9917 119.389 33.2867 119.389 31.4267C119.389 29.2567 117.674 26.9317 114.868 25.2267L76.9939 3.37187C71.6946 0.42689 63.7455 0.116892 59.2255 2.59688L19.6364 25.3817C17.4543 26.6217 16.3633 28.3267 16.3633 30.1867C16.3633 32.3567 18.0778 34.6817 20.8833 36.3867L58.7579 58.2415C61.5635 59.7915 65.1483 60.7215 68.7331 60.7215ZM66.8628 2.28688C70.1359 2.28688 73.5649 3.06188 76.2146 4.61187L114.089 26.4667C116.583 27.8617 117.986 29.7217 117.986 31.4267C117.986 32.8217 117.051 34.2167 115.336 35.1467L75.747 57.9315C71.5387 60.4115 64.2131 60.1015 59.2255 57.1565L21.3509 35.3017C18.8571 33.9067 17.4543 32.0467 17.4543 30.3417C17.4543 28.9467 18.3895 27.5517 20.104 26.6217L59.6931 3.83687C61.7193 2.75188 64.2132 2.28688 66.8628 2.28688Z" fill="#1A1A1A"/>
    <path d="M67.7971 60.1009V72.0358L62.6537 71.1058L55.1723 67.5409L19.168 46.461L16.8301 43.671V30.4961L18.3887 34.3711L26.1818 38.8661L62.4978 59.1709L67.7971 60.1009Z" fill="#1A1A1A"/>
    <path d="M72.0059 59.7923V71.7272L75.279 70.7972V58.8623L72.0059 59.7923Z" fill="#1A1A1A"/>
    <path d="M116.426 35.4562V46.7711L118.14 45.5311L119.387 37.7812L118.764 31.1162L116.426 35.4562Z" fill="#1A1A1A"/>
    <path d="M52.2114 87.6886C51.4321 88.1536 51.4321 88.9286 52.2114 89.2386C52.9908 89.7036 54.2377 89.7036 55.017 89.2386C55.7963 88.7736 55.7963 87.9986 55.017 87.6886C54.2377 87.2236 52.9908 87.2236 52.2114 87.6886Z" fill="#1A1A1A"/>
    <path d="M44.8872 83.5021C44.1079 83.9671 44.1079 84.7421 44.8872 85.0521C45.6665 85.5171 46.9134 85.5171 47.6927 85.0521C48.472 84.5871 48.472 83.8121 47.6927 83.5021C46.9134 83.0371 45.6665 83.0371 44.8872 83.5021Z" fill="#1A1A1A"/>
    <path d="M37.561 79.3195C36.7817 79.7844 36.7817 80.5594 37.561 80.8694C38.3404 81.3344 39.5873 81.3344 40.3666 80.8694C41.1459 80.4044 41.1459 79.6294 40.3666 79.3195C39.5873 78.8545 38.3404 78.8545 37.561 79.3195Z" fill="#1A1A1A"/>
    <path d="M30.2349 74.9786C29.4556 75.4436 29.4556 76.2186 30.2349 76.5286C31.0142 76.9936 32.2611 76.9936 33.0404 76.5286C33.8197 76.0636 33.8197 75.2886 33.0404 74.9786C32.2611 74.5136 30.8583 74.5136 30.2349 74.9786Z" fill="#1A1A1A"/>
    <path d="M22.7544 70.795C21.9751 71.26 21.9751 72.035 22.7544 72.345C23.5337 72.81 24.7806 72.81 25.56 72.345C26.3393 71.88 26.3393 71.105 25.56 70.795C24.7806 70.33 23.5337 70.33 22.7544 70.795Z" fill="#1A1A1A"/>
    <path d="M15.4282 66.6095C14.6489 67.0745 14.6489 67.8495 15.4282 68.1595C16.2075 68.6245 17.4544 68.6245 18.2337 68.1595C19.0131 67.6945 19.0131 66.9195 18.2337 66.6095C17.4544 66.1445 16.2075 66.1445 15.4282 66.6095Z" fill="#1A1A1A"/>
    <path d="M8.10402 62.4239C7.3247 62.8889 7.3247 63.6639 8.10402 63.9739C8.88333 64.4389 10.1302 64.4389 10.9095 63.9739C11.6888 63.5089 11.6888 62.7339 10.9095 62.4239C10.1302 61.9589 8.88333 61.9589 8.10402 62.4239Z" fill="#1A1A1A"/>
    <path d="M0.777844 58.0831C-0.00146894 58.5481 -0.00146894 59.3231 0.777844 59.6331C1.55716 60.0981 2.80409 60.0981 3.5834 59.6331C4.36271 59.1681 4.36271 58.3931 3.5834 58.0831C2.80409 57.6181 1.55716 57.6181 0.777844 58.0831Z" fill="#1A1A1A"/>
    <path d="M67.02 87.6886C66.2407 88.1536 66.2407 88.9286 67.02 89.2386C67.7993 89.7036 69.0463 89.7036 69.8256 89.2386C70.6049 88.7736 70.6049 87.9986 69.8256 87.6886C69.0463 87.2236 67.7993 87.2236 67.02 87.6886Z" fill="#1A1A1A"/>
    <path d="M59.5376 83.5021C58.7583 83.9671 58.7583 84.7421 59.5376 85.0521C60.3169 85.5171 61.5638 85.5171 62.3431 85.0521C63.1224 84.5871 63.1224 83.8121 62.3431 83.5021C61.5638 83.0371 60.3169 83.0371 59.5376 83.5021Z" fill="#1A1A1A"/>
    <path d="M52.2114 79.3195C51.4321 79.7844 51.4321 80.5594 52.2114 80.8694C52.9908 81.3344 54.2377 81.3344 55.017 80.8694C55.7963 80.4044 55.7963 79.6294 55.017 79.3195C54.2377 78.8545 52.9908 78.8545 52.2114 79.3195Z" fill="#1A1A1A"/>
    <path d="M44.8872 74.9786C44.1079 75.4436 44.1079 76.2186 44.8872 76.5286C45.6665 76.9936 46.9134 76.9936 47.6927 76.5286C48.472 76.0636 48.472 75.2886 47.6927 74.9786C46.9134 74.5136 45.6665 74.5136 44.8872 74.9786Z" fill="#1A1A1A"/>
    <path d="M37.561 70.795C36.7817 71.26 36.7817 72.035 37.561 72.345C38.3404 72.81 39.5873 72.81 40.3666 72.345C41.1459 71.88 41.1459 71.105 40.3666 70.795C39.5873 70.33 38.3404 70.33 37.561 70.795Z" fill="#1A1A1A"/>
    <path d="M31.6395 68.4688C32.7586 68.4688 33.6657 67.983 33.6657 67.3838C33.6657 66.7846 32.7586 66.2988 31.6395 66.2988C30.5205 66.2988 29.6133 66.7846 29.6133 67.3838C29.6133 67.983 30.5205 68.4688 31.6395 68.4688Z" fill="#1A1A1A"/>
    <path d="M22.7544 62.4239C21.9751 62.8889 21.9751 63.6639 22.7544 63.9739C23.5337 64.4389 24.7806 64.4389 25.56 63.9739C26.3393 63.5089 26.3393 62.7339 25.56 62.4239C24.7806 61.9589 23.5337 61.9589 22.7544 62.4239Z" fill="#1A1A1A"/>
    <path d="M15.4282 58.0831C14.6489 58.5481 14.6489 59.3231 15.4282 59.6331C16.2075 60.0981 17.4544 60.0981 18.2337 59.6331C19.0131 59.1681 19.0131 58.3931 18.2337 58.0831C17.4544 57.6181 16.2075 57.6181 15.4282 58.0831Z" fill="#1A1A1A"/>
    <path d="M9.50666 55.7598C10.6257 55.7598 11.5329 55.2741 11.5329 54.6748C11.5329 54.0756 10.6257 53.5898 9.50666 53.5898C8.38762 53.5898 7.48047 54.0756 7.48047 54.6748C7.48047 55.2741 8.38762 55.7598 9.50666 55.7598Z" fill="#1A1A1A"/>
    <path d="M2.18054 51.5743C3.29959 51.5743 4.20674 51.0885 4.20674 50.4893C4.20674 49.8901 3.29959 49.4043 2.18054 49.4043C1.06149 49.4043 0.154297 49.8901 0.154297 50.4893C0.154297 51.0885 1.06149 51.5743 2.18054 51.5743Z" fill="#1A1A1A"/>
    <path d="M74.3443 83.3487C73.5649 83.8137 73.5649 84.5887 74.3443 84.8987C75.1236 85.3637 76.3704 85.3637 77.1498 84.8987C77.9291 84.4337 77.9291 83.6587 77.1498 83.3487C76.3704 83.0387 75.1236 83.0387 74.3443 83.3487Z" fill="#1A1A1A"/>
    <path d="M67.02 79.1642C66.2407 79.6292 66.2407 80.4042 67.02 80.7142C67.7993 81.1792 69.0463 81.1792 69.8256 80.7142C70.6049 80.2492 70.6049 79.4742 69.8256 79.1642C69.0463 78.6992 67.7993 78.6992 67.02 79.1642Z" fill="#1A1A1A"/>
    <path d="M59.6939 74.9786C58.9145 75.4436 58.9145 76.2186 59.6939 76.5286C60.4732 76.9936 61.7201 76.9936 62.4994 76.5286C63.2787 76.0636 63.2787 75.2886 62.4994 74.9786C61.7201 74.5136 60.4732 74.5136 59.6939 74.9786Z" fill="#1A1A1A"/>
    <path d="M53.7723 72.6544C54.8913 72.6544 55.7985 72.1686 55.7985 71.5694C55.7985 70.9701 54.8913 70.4844 53.7723 70.4844C52.6532 70.4844 51.7461 70.9701 51.7461 71.5694C51.7461 72.1686 52.6532 72.6544 53.7723 72.6544Z" fill="#1A1A1A"/>
    <path d="M44.8872 66.4532C44.1079 66.9182 44.1079 67.6932 44.8872 68.0032C45.6665 68.4682 46.9134 68.4682 47.6927 68.0032C48.472 67.5382 48.472 66.7632 47.6927 66.4532C46.9134 66.1432 45.6665 66.1432 44.8872 66.4532Z" fill="#1A1A1A"/>
    <path d="M37.561 62.2687C36.7817 62.7337 36.7817 63.5087 37.561 63.8187C38.3404 64.2837 39.5873 64.2837 40.3666 63.8187C41.1459 63.3537 41.1459 62.5787 40.3666 62.2687C39.5873 61.8037 38.3404 61.8037 37.561 62.2687Z" fill="#1A1A1A"/>
    <path d="M30.2349 58.0831C29.4556 58.5481 29.4556 59.3231 30.2349 59.6331C31.0142 60.0981 32.2611 60.0981 33.0404 59.6331C33.8197 59.1681 33.8197 58.3931 33.0404 58.0831C32.2611 57.6181 31.0142 57.6181 30.2349 58.0831Z" fill="#1A1A1A"/>
    <path d="M22.9107 53.8986C22.1313 54.3635 22.1313 55.1385 22.9107 55.4485C23.69 55.9135 24.9369 55.9135 25.7162 55.4485C26.4955 54.9835 26.4955 54.2086 25.7162 53.8986C24.9369 53.4336 23.69 53.4336 22.9107 53.8986Z" fill="#1A1A1A"/>
    <path d="M15.4282 49.713C14.6489 50.178 14.6489 50.953 15.4282 51.263C16.2075 51.728 17.4544 51.728 18.2337 51.263C19.0131 50.798 19.0131 50.023 18.2337 49.713C17.6103 49.248 16.2075 49.248 15.4282 49.713Z" fill="#1A1A1A"/>
    <path d="M8.10402 45.3741C7.3247 45.8391 7.3247 46.6141 8.10402 46.9241C8.88333 47.3891 10.1302 47.3891 10.9095 46.9241C11.6888 46.4591 11.6888 45.6841 10.9095 45.3741C10.1302 44.9091 8.88333 44.9091 8.10402 45.3741Z" fill="#1A1A1A"/>
    <path d="M81.6704 79.1642C80.8911 79.6292 80.8911 80.4042 81.6704 80.7142C82.4497 81.1792 83.6966 81.1792 84.4759 80.7142C85.2552 80.2492 85.2552 79.4742 84.4759 79.1642C83.8525 78.6992 82.4497 78.6992 81.6704 79.1642Z" fill="#1A1A1A"/>
    <path d="M74.3443 74.9786C73.5649 75.4436 73.5649 76.2186 74.3443 76.5286C75.1236 76.9936 76.3704 76.9936 77.1498 76.5286C77.9291 76.0636 77.9291 75.2886 77.1498 74.9786C76.3704 74.5136 75.1236 74.5136 74.3443 74.9786Z" fill="#1A1A1A"/>
    <path d="M89.1528 74.9786C88.3735 75.4436 88.3735 76.2186 89.1528 76.5286C89.9322 76.9936 91.179 76.9936 91.9584 76.5286C92.7377 76.0636 92.7377 75.2886 91.9584 74.9786C91.179 74.5136 89.9322 74.5136 89.1528 74.9786Z" fill="#1A1A1A"/>
    <path d="M81.6704 70.795C80.8911 71.26 80.8911 72.035 81.6704 72.345C82.4497 72.81 83.6966 72.81 84.4759 72.345C85.2552 71.88 85.2552 71.105 84.4759 70.795C83.8525 70.33 82.4497 70.33 81.6704 70.795Z" fill="#1A1A1A"/>
    <path d="M97.8798 72.6544C98.9988 72.6544 99.906 72.1686 99.906 71.5694C99.906 70.9701 98.9988 70.4844 97.8798 70.4844C96.7607 70.4844 95.8535 70.9701 95.8535 71.5694C95.8535 72.1686 96.7607 72.6544 97.8798 72.6544Z" fill="#1A1A1A"/>
    <path d="M89.1528 66.4532C88.3735 66.9182 88.3735 67.6932 89.1528 68.0032C89.9322 68.4682 91.179 68.4682 91.9584 68.0032C92.7377 67.5382 92.7377 66.7632 91.9584 66.4532C91.179 66.1432 89.9322 66.1432 89.1528 66.4532Z" fill="#1A1A1A"/>
    <path d="M103.803 66.4532C103.024 66.9182 103.024 67.6932 103.803 68.0032C104.583 68.4682 105.829 68.4682 106.609 68.0032C107.388 67.5382 107.388 66.7632 106.609 66.4532C105.829 66.1432 104.583 66.1432 103.803 66.4532Z" fill="#1A1A1A"/>
    <path d="M96.4771 62.2687C95.6977 62.7337 95.6977 63.5087 96.4771 63.8187C97.2564 64.2837 98.5033 64.2837 99.2826 63.8187C100.062 63.3537 100.062 62.5787 99.2826 62.2687C98.5033 61.8037 97.2564 61.8037 96.4771 62.2687Z" fill="#1A1A1A"/>
    <path d="M111.129 62.2687C110.35 62.7337 110.35 63.5087 111.129 63.8187C111.909 64.2837 113.156 64.2837 113.935 63.8187C114.714 63.3537 114.714 62.5787 113.935 62.2687C113.156 61.8037 111.909 61.8037 111.129 62.2687Z" fill="#1A1A1A"/>
    <path d="M103.803 58.0831C103.024 58.5481 103.024 59.3231 103.803 59.6331C104.583 60.0981 105.829 60.0981 106.609 59.6331C107.388 59.1681 107.388 58.3931 106.609 58.0831C105.829 57.6181 104.583 57.6181 103.803 58.0831Z" fill="#1A1A1A"/>
    <path d="M118.61 58.0831C117.831 58.5481 117.831 59.3231 118.61 59.6331C119.389 60.0981 120.636 60.0981 121.415 59.6331C122.195 59.1681 122.195 58.3931 121.415 58.0831C120.636 57.6181 119.389 57.6181 118.61 58.0831Z" fill="#1A1A1A"/>
    <path d="M111.129 53.8986C110.35 54.3635 110.35 55.1385 111.129 55.4485C111.909 55.9135 113.156 55.9135 113.935 55.4485C114.714 54.9835 114.714 54.2086 113.935 53.8986C113.156 53.4336 111.909 53.4336 111.129 53.8986Z" fill="#1A1A1A"/>
    <path d="M118.61 49.713C117.831 50.178 117.831 50.953 118.61 51.263C119.389 51.728 120.636 51.728 121.415 51.263C122.195 50.798 122.195 50.023 121.415 49.713C120.636 49.248 119.389 49.248 118.61 49.713Z" fill="#1A1A1A"/>
    <path d="M36.7826 32.8192C41.7702 31.2692 49.7192 29.5643 54.7068 32.3542C55.642 32.8192 56.5772 33.2842 57.2007 33.7492L60.162 32.3542C60.162 31.2693 60.6296 30.1843 61.7207 29.2543L67.6435 23.8293C67.7993 23.6743 67.9552 23.5193 68.111 23.3643L68.2669 23.2093C68.5786 22.8993 69.0462 22.5893 69.5138 22.4343C74.0338 19.6443 81.5152 19.4893 86.1911 22.1243C90.867 24.7593 90.867 28.9443 86.347 31.7342C85.8794 32.0442 85.4118 32.1992 84.9442 32.5092H84.7884C84.4766 32.6642 84.3208 32.6642 84.0091 32.8192L74.8131 36.3842C73.2545 37.0042 71.3841 37.3142 69.3579 37.3142L67.02 39.1742C67.7993 39.6392 68.5786 40.1042 69.5138 40.5692C74.6573 43.3592 72.0076 48.0091 69.5138 50.9541C68.4228 52.3491 65.4614 52.6591 63.591 51.5741L49.8751 43.9792L49.2517 43.6692L35.5358 36.2292C34.133 35.2992 34.6006 33.4392 36.7826 32.8192Z" fill="#D93831"/>
    <path d="M34.9121 30.3401C35.3797 29.8751 35.8473 29.565 36.6266 29.4101C42.2376 27.7051 49.8749 26.3101 55.0184 29.1001L57.3563 30.3401L59.8501 29.2551C59.8501 28.3251 60.1618 27.5501 60.7853 26.7751C60.9411 26.4651 61.2529 26.3101 61.4088 26.0001L67.1757 20.5751C67.3315 20.4201 67.4874 20.2651 67.6433 20.1101L67.955 19.8001L68.1108 19.6451C68.4226 19.3351 68.7343 19.1801 69.046 19.0251C73.7219 16.2351 81.5151 16.0801 86.3468 18.7151C86.5027 18.8701 86.6585 18.8701 86.8144 19.0251C86.9702 19.1801 87.1261 19.1801 87.2819 19.3351C87.4378 19.4901 87.5937 19.4901 87.7496 19.6451C87.9054 19.8001 88.0613 19.9551 88.2171 20.1101C88.373 20.1101 88.373 20.2651 88.5289 20.2651C88.9965 20.7301 89.464 21.3501 89.7757 21.8151C89.9316 22.1251 90.0875 22.4351 90.0875 22.5901V22.7451C90.0875 23.0551 90.2434 23.3651 90.2434 23.5201V23.6751C90.2434 24.2951 90.0875 24.9151 89.9316 25.5351L89.4641 26.6201C88.8406 27.5501 87.9054 28.3251 86.6585 29.1001C86.5026 29.2551 86.3468 29.2551 86.1909 29.4101L85.0999 29.8751C84.7881 30.0301 84.4764 30.03 84.3206 30.185L75.1247 33.75C73.566 34.37 71.6957 34.68 69.6695 34.835L68.1108 36.075C68.2667 36.23 68.4226 36.23 68.5784 36.385C69.046 36.695 69.5136 36.85 69.6695 37.005H69.8253C69.9812 37.005 69.9812 37.16 70.137 37.16C70.2929 37.315 70.4488 37.315 70.6047 37.47C70.7605 37.625 70.9164 37.625 70.9164 37.78C71.0722 37.935 71.2281 38.09 71.384 38.245C71.5398 38.4 71.5398 38.4 71.6957 38.555C71.8515 38.71 72.0074 38.865 72.0074 39.02C72.0074 39.175 72.1633 39.175 72.1633 39.33C72.3192 39.485 72.475 39.795 72.475 39.95C72.475 39.95 72.475 40.105 72.6309 40.105C72.6309 40.26 72.7867 40.415 72.7867 40.57C72.7867 40.725 72.7867 40.725 72.7867 40.88C72.7867 40.88 72.7867 40.88 72.7867 41.035V41.19C72.7867 41.345 72.7867 41.655 72.7867 41.81C72.7867 41.965 72.7867 41.965 72.7867 42.12C72.7867 42.275 72.7867 42.585 72.7867 42.74C72.7867 42.895 72.7867 42.895 72.7867 43.05C72.7867 43.205 72.7867 43.36 72.6309 43.515L72.1633 44.755C71.5398 45.995 70.7605 47.2349 69.9812 48.1649C68.7343 49.7149 65.4612 50.0249 63.435 48.9399L35.5356 33.595C35.2238 33.44 35.068 33.285 34.9121 33.13C34.4445 32.665 34.1328 32.045 34.1328 31.425C34.2887 31.115 34.6004 30.6501 34.9121 30.3401ZM64.0584 48.1649C65.617 49.0949 68.4226 48.7849 69.3577 47.5449C70.2929 46.4599 71.384 44.91 71.8515 43.515C71.384 42.585 70.7605 41.81 69.5136 41.19L66.7081 39.64V36.54V35.92L67.0198 35.61L69.3577 33.75H69.5136C71.384 33.75 73.0985 33.44 74.6571 32.82L83.853 29.2551C84.1647 29.1001 84.3206 29.1 84.6323 28.945L84.944 28.7901C85.4116 28.6351 85.8792 28.3251 86.1909 28.1701C87.5937 27.3951 88.5288 26.4651 88.9964 25.3801C88.5288 24.2951 87.4378 23.3651 86.1909 22.5901C81.6709 20.1101 74.3454 20.2651 69.9812 22.9001C69.6695 23.0551 69.2019 23.3651 68.8902 23.6751L68.7343 23.8301C68.5784 23.9851 68.4226 24.1401 68.2667 24.2951L62.3439 29.72C61.4087 30.495 60.9412 31.4251 61.097 32.355V32.665L57.5122 34.37L54.7067 32.82C49.8749 30.185 41.9259 31.89 37.4059 33.13L64.0584 48.1649Z" fill="#1A1A1A"/>
</svg>
