<svg width="10" height="14" viewBox="0 0 10 14" fill="none" xmlns="http://www.w3.org/2000/svg">
  <path d="M5.04761 14.0002C4.7619 13.6913 4.47618 13.3825 4.19047 13.0737C3.14285 11.7355 2.09523 10.2943 1.23809 8.75017C0.761899 7.92664 0.285708 7.00017 0.0952323 6.0737C-5.80959e-06 5.45605 -5.80959e-06 4.83841 0.0952323 4.22076C0.380947 3.08841 0.857137 2.059 1.71428 1.33841C2.57142 0.514878 3.61904 0.103114 4.7619 0.000172336C6.19047 -0.102769 7.42857 0.411937 8.47618 1.54429C9.33333 2.36782 9.71428 3.39723 9.90476 4.63253C10.0952 5.76488 9.80952 6.79429 9.33333 7.8237C8.66666 9.26488 7.80952 10.5002 6.85714 11.7355C6.28571 12.559 5.61904 13.2796 5.04761 14.0002ZM7.33333 4.52958C7.33333 3.19135 6.28571 2.059 5.04761 2.059C3.71428 1.95605 2.66666 3.08841 2.66666 4.52958C2.66666 5.86782 3.71428 7.00017 4.95237 7.00017C6.28571 7.00017 7.33333 5.86782 7.33333 4.52958Z" fill="currentColor"/>
</svg>
