<svg width="19px" height="14px" viewBox="0 0 19 14" version="1.1" xmlns="http://www.w3.org/2000/svg" xmlns:xlink="http://www.w3.org/1999/xlink">
    <title>ShapeSVG</title>
    <g id="Social-Icons" stroke="none" stroke-width="1" fill="none" fill-rule="evenodd">
        <g id="Artboard" transform="translate(-457.000000, -75.000000)" fill="currentColor">
            <path d="M476,79.455609 L476,87.2477751 C476,87.6797363 475.834075,88.04918 475.501705,88.3568289 C475.169466,88.6644778 474.770075,88.8181818 474.303664,88.8181818 L474.303664,88.8181818 L458.696466,88.8181818 C458.229925,88.8181818 457.830534,88.6644778 457.498295,88.3568289 C457.166055,88.0493005 457,87.6797363 457,87.2477751 L457,87.2477751 L457,79.455609 C457.311027,79.7761468 457.667993,80.0609088 458.070897,80.309413 C460.629651,81.918848 462.38611,83.0475364 463.340404,83.6952373 C463.743308,83.9700013 464.070212,84.1844159 464.321116,84.3379995 C464.572021,84.4918239 464.906082,84.6487803 465.323041,84.8091095 C465.74,84.9694386 466.128849,85.049543 466.489329,85.049543 L466.489329,85.049543 L466.510801,85.049543 C466.871281,85.049543 467.26,84.9694386 467.676959,84.8091095 C468.094048,84.6487803 468.427979,84.4918239 468.678884,84.3379995 C468.929918,84.1844159 469.256822,83.9700013 469.659726,83.6952373 C470.861151,82.8904596 472.621384,81.7617712 474.939644,80.309413 C475.342678,80.0542836 475.696,79.7695217 476,79.455609 L476,79.455609 Z M474.303534,75 C474.762788,75 475.160486,75.153704 475.49624,75.4612324 C475.831993,75.7687609 476,76.1384455 476,76.5702863 C476,77.0871701 475.826918,77.5811671 475.480363,78.0520361 C475.133938,78.5231461 474.702925,78.9255952 474.186932,79.2591425 C471.529274,80.966871 469.875103,82.0300304 469.224938,82.4487413 C469.154274,82.4946357 469.003966,82.5942542 468.774274,82.7480786 C468.544582,82.9019031 468.353801,83.0263359 468.201801,83.121136 C468.049801,83.2159362 467.866048,83.3221799 467.650541,83.4399875 C467.435034,83.5575542 467.23163,83.6460906 467.040849,83.7047535 C466.849938,83.7637777 466.673212,83.793049 466.510671,83.793049 L466.510671,83.793049 L466.489329,83.793049 C466.326788,83.793049 466.150062,83.7637777 465.959151,83.7047535 C465.76837,83.6460906 465.565096,83.5576747 465.349459,83.4399875 C465.133822,83.3223004 464.950068,83.2159362 464.798068,83.121136 C464.646199,83.0263359 464.455288,82.9019031 464.225596,82.7480786 C463.995904,82.5943746 463.845726,82.4946357 463.775062,82.4487413 C463.131795,82.0301509 462.20587,81.4331626 460.997158,80.657897 C459.788445,79.8826314 459.063973,79.4163398 458.82361,79.2593834 C458.385438,78.9846195 457.971863,78.6067437 457.583144,78.1258767 C457.194425,77.6450096 457,77.1983526 457,76.7861464 C457,76.2758877 457.146664,75.8505516 457.439993,75.5102587 C457.733322,75.1700862 458.152103,75 458.696336,75 L458.696336,75 Z" id="Shape"></path>
        </g>
    </g>
</svg>
