<svg width="36" height="36" viewBox="0 0 36 36" fill="none" xmlns="http://www.w3.org/2000/svg">
<g clip-path="url(#clip0_2712_1417)">
<path d="M17.9907 0C28.0707 0.149533 36.0187 8.01869 36 18.0374C35.9813 28.0935 28.0146 36 18.0094 36C7.94808 36.0187 -0.0186684 28.0374 3.28572e-05 18C0.0187342 7.94393 7.98548 0.168224 17.9907 0ZM18.2151 33.215C18.6452 33.1776 19.2998 33.1589 19.9356 33.0654C23.2457 32.6355 26.107 31.2523 28.5382 28.9533C28.7252 28.7664 28.7626 28.6355 28.6691 28.3925C27.8463 26.0748 26.1631 24.5421 24.0125 23.5327C20.0291 21.6822 15.9896 21.6822 12.0063 23.5327C9.89302 24.5234 8.2286 26.0374 7.36834 28.2991C7.23743 28.6355 7.31224 28.8224 7.55536 29.0467C10.4915 31.7757 13.9699 33.1589 18.2151 33.215ZM23.5263 13.8692C23.5263 10.8224 21.039 8.35514 17.9907 8.37383C14.9237 8.39252 12.4738 10.8411 12.4738 13.9065C12.4738 16.9533 14.9798 19.4393 18.0094 19.4206C21.0577 19.3832 23.5263 16.8972 23.5263 13.8692Z" fill="#D0D0D0"/>
<path d="M18.2152 33.2146C13.97 33.1585 10.4915 31.7754 7.55544 29.0464C7.31232 28.8221 7.23752 28.6352 7.36843 28.2987C8.22869 26.0371 9.8931 24.523 12.0063 23.5324C15.9897 21.6819 20.0292 21.6819 24.0126 23.5324C26.1632 24.5417 27.8463 26.0744 28.6692 28.3922C28.7627 28.6352 28.7253 28.7847 28.5383 28.9529C26.1071 31.252 23.2645 32.6352 19.9357 33.0651C19.2999 33.1585 18.6453 33.1772 18.2152 33.2146Z" fill="#100F0F"/>
<path d="M23.5251 13.8695C23.5251 16.9162 21.0566 19.4022 18.0082 19.4022C14.9786 19.4209 12.4727 16.9349 12.4727 13.8882C12.4727 10.8228 14.9225 8.37416 17.9895 8.35547C21.0379 8.35547 23.5251 10.8041 23.5251 13.8695Z" fill="#100F0F"/>
</g>
<defs>
<clipPath id="clip0_2712_1417">
<rect width="36" height="36" fill="white"/>
</clipPath>
</defs>
</svg>
