<svg width="64" height="64" viewBox="0 0 64 64" fill="none" xmlns="http://www.w3.org/2000/svg">
<path d="M32 0C49.4884 0 64 14.5116 64 32C64 49.4884 49.4884 64 32 64C14.1395 64 0 49.4884 0 32C0 14.1395 14.5116 0 32 0ZM61.0233 32C61.0233 16 48 2.97674 32 2.97674C16 2.97674 2.97674 16 2.97674 32C2.97674 48 16 61.0233 32 61.0233C48 61.0233 61.0233 48 61.0233 32Z" fill="white"/>
<path d="M21.5814 31.9998C21.5814 28.651 21.5814 25.6742 21.5814 22.3254C21.5814 20.4649 22.6977 18.9766 24.5581 18.9766C25.3023 18.9766 25.6744 19.3487 26.4186 19.3487C30.5116 21.5812 34.2326 23.8138 38.3256 26.4184C39.8139 27.1626 41.3023 28.2789 42.7907 29.0231C44.6512 30.1394 45.3953 31.6277 44.2791 33.1161C43.907 33.4882 43.5349 34.2324 43.1628 34.6045C37.2093 37.9533 31.6279 41.3021 26.0465 44.651C24.186 45.7673 21.5814 44.651 21.5814 42.4184C21.2093 38.6975 21.5814 35.3487 21.5814 31.9998Z" fill="white"/>
</svg>
