<svg width="20" height="20" viewBox="0 0 20 20" fill="none" xmlns="http://www.w3.org/2000/svg">
    <path d="M1.82217 3.78627C1.82217 3.66862 1.82217 3.57236 1.82217 3.4761C1.82217 2.54557 1.82217 1.60435 1.82217 0.673828C1.82217 0.181827 2.00878 0 2.51372 0C5.46652 0 8.41932 0 11.3721 0C13.4029 0 15.4336 0 17.4643 0C18.0022 0 18.1778 0.171131 18.1778 0.684524C18.1778 1.61505 18.1778 2.55627 18.1778 3.48679C18.1778 3.58305 18.1778 3.67932 18.1778 3.78627C18.7486 3.83975 19.2316 4.02158 19.5829 4.4494C19.8244 4.74888 19.989 5.08045 19.989 5.47619C19.989 8.03246 20 10.5887 19.989 13.145C19.978 14.1397 19.1767 14.8456 18.101 14.867C17.4863 14.8777 16.8716 14.867 16.2678 14.867C16.169 14.867 16.0703 14.867 15.9385 14.867C15.9385 14.9953 15.9385 15.0916 15.9385 15.1879C15.9385 16.2895 15.9385 17.4019 15.9385 18.5035C15.9385 18.9848 15.7629 19.1667 15.2689 19.1667C11.8441 19.1667 8.4303 19.1667 5.00549 19.1667C4.50055 19.1667 4.31394 18.9848 4.31394 18.4821C4.31394 17.3912 4.31394 16.3109 4.31394 15.22C4.31394 15.113 4.31394 15.006 4.31394 14.867C4.14929 14.867 4.00659 14.867 3.86389 14.867C3.0955 14.8563 2.32711 14.8777 1.55873 14.8242C0.680571 14.7493 0.0109769 14.022 0 13.1664C0 10.6208 0 8.06454 0.0109769 5.51897C0.0109769 4.62053 0.702525 3.91462 1.62459 3.80766C1.6685 3.80766 1.72338 3.79697 1.82217 3.78627ZM15.9495 13.8509C16.652 13.8509 17.3326 13.8509 18.0022 13.8509C18.6828 13.8509 18.9682 13.5728 18.9682 12.899C18.9682 10.5246 18.9682 8.13941 18.9682 5.76497C18.9682 5.08045 18.6828 4.81306 17.9802 4.81306C12.6564 4.81306 7.3326 4.81306 2.01976 4.81306C1.30626 4.81306 1.03183 5.08045 1.03183 5.78636C1.03183 6.86663 1.03183 7.94689 1.03183 9.01646C1.03183 10.3213 1.03183 11.6369 1.03183 12.9418C1.03183 13.5407 1.33919 13.8402 1.94292 13.8402C2.40395 13.8402 2.85401 13.8402 3.31504 13.8402C3.64435 13.8402 3.97366 13.8402 4.30296 13.8402C4.30296 13.2947 4.30296 12.7813 4.30296 12.2359C4.14929 12.2359 4.01756 12.2359 3.88584 12.2359C3.75412 12.2359 3.61142 12.2466 3.47969 12.2359C3.16136 12.2038 2.94182 12.0006 2.94182 11.7332C2.94182 11.4444 3.16136 11.2412 3.50165 11.2305C3.55653 11.2305 3.61142 11.2305 3.6663 11.2305C7.89243 11.2305 12.1186 11.2305 16.3447 11.2305C16.4654 11.2305 16.5862 11.2305 16.6959 11.2519C16.9265 11.3053 17.0472 11.4765 17.0692 11.6904C17.0911 11.9043 16.9923 12.0861 16.7838 12.1717C16.663 12.2252 16.5203 12.2359 16.3886 12.2466C16.2459 12.2573 16.1032 12.2466 15.9605 12.2466C15.9495 12.8027 15.9495 13.3054 15.9495 13.8509ZM5.37871 18.1292C8.55104 18.1292 11.7124 18.1292 14.8738 18.1292C14.8738 16.1612 14.8738 14.2146 14.8738 12.2679C11.7014 12.2679 8.55104 12.2679 5.37871 12.2679C5.37871 14.2253 5.37871 16.1719 5.37871 18.1292ZM17.124 1.03748C12.36 1.03748 7.618 1.03748 2.87596 1.03748C2.87596 1.95731 2.87596 2.86644 2.87596 3.77558C7.62898 3.77558 12.371 3.77558 17.124 3.77558C17.124 2.85575 17.124 1.95731 17.124 1.03748Z" fill="black"/>
    <path d="M15.6636 6.52441C16.432 6.52441 17.0687 7.12337 17.0687 7.87207C17.0796 8.59938 16.432 9.23042 15.6636 9.23042C14.9062 9.23042 14.2805 8.63146 14.2695 7.89346C14.2695 7.14476 14.8842 6.53511 15.6636 6.52441ZM15.3233 7.87207C15.3233 8.07529 15.4989 8.23572 15.6746 8.23572C15.8502 8.23572 16.0258 8.0539 16.0149 7.88276C15.9929 7.67955 15.8722 7.5512 15.6526 7.56189C15.4331 7.5512 15.3343 7.69024 15.3233 7.87207Z" fill="black"/>
    <path d="M11.5913 6.52441C12.3597 6.52441 12.9854 7.13407 12.9854 7.88277C12.9854 8.62077 12.3707 9.21973 11.6023 9.23042C10.823 9.24112 10.1973 8.64216 10.1973 7.88277C10.1973 7.13407 10.823 6.52441 11.5913 6.52441ZM11.5913 7.5512C11.3608 7.57259 11.2511 7.70094 11.2401 7.90416C11.2401 8.08598 11.4157 8.25712 11.5913 8.23572C11.7999 8.21433 11.9316 8.10738 11.9206 7.88277C11.9206 7.66885 11.7889 7.5619 11.5913 7.5512Z" fill="black"/>
</svg>
