<svg xmlns="http://www.w3.org/2000/svg" width="16" height="20" viewBox="0 0 16 20" fill="none">
    <path d="M13.75 0C14.9409 0 15.9156 0.925251 15.9948 2.09615L16 2.25022V17.7498C16 18.9408 15.0748 19.9156 13.904 19.9948L13.75 20H2.25002C1.05914 20 0.0843558 19.0747 0.00519089 17.9038L0 17.7498V2.25022C0 1.05924 0.925169 0.0843633 2.09597 0.00519135L2.25002 0H13.75ZM13.75 1.50014H2.25002C1.87032 1.50014 1.55652 1.78233 1.50686 2.14844L1.50001 2.25022V17.7498C1.50001 18.1295 1.78217 18.4433 2.14825 18.493L2.25002 18.4999H13.75C14.1297 18.4999 14.4435 18.2177 14.4931 17.8516L14.5 17.7498V2.25022C14.5 1.87048 14.2178 1.55666 13.8518 1.50699L13.75 1.50014ZM8.24813 10.9974C8.66234 10.9974 8.99813 11.3332 8.99813 11.7475C8.99813 12.1272 8.71598 12.441 8.3499 12.4907L8.24813 12.4975H3.74997C3.33575 12.4975 2.99996 12.1617 2.99996 11.7475C2.99996 11.3677 3.28212 11.0539 3.6482 11.0042L3.74997 10.9974H8.24813ZM12.25 7.99846C12.6643 7.99846 13 8.33427 13 8.74853C13 9.12826 12.7179 9.44209 12.3518 9.49175L12.25 9.4986H3.74997C3.33575 9.4986 2.99996 9.16278 2.99996 8.74853C2.99996 8.36879 3.28212 8.05497 3.6482 8.0053L3.74997 7.99846H12.25ZM12.25 4.99952C12.6643 4.99952 13 5.33534 13 5.74959C13 6.12932 12.7179 6.44315 12.3518 6.49281L12.25 6.49966H3.74997C3.33575 6.49966 2.99996 6.16384 2.99996 5.74959C2.99996 5.36986 3.28212 5.05603 3.6482 5.00636L3.74997 4.99952H12.25Z" fill="#070707"/>
</svg>