<svg width="14" height="15" viewBox="0 0 14 15" fill="none" xmlns="http://www.w3.org/2000/svg">
<path fill-rule="evenodd" clip-rule="evenodd" d="M11.398 1.36364C10.6801 1.36364 10.098 1.97416 10.098 2.72727C10.098 3.48039 10.6801 4.09091 11.398 4.09091C12.116 4.09091 12.698 3.48039 12.698 2.72727C12.698 1.97416 12.116 1.36364 11.398 1.36364ZM8.79805 2.72727C8.79805 1.22104 9.96211 0 11.398 0C12.834 0 13.998 1.22104 13.998 2.72727C13.998 4.2335 12.834 5.45455 11.398 5.45455C9.96211 5.45455 8.79805 4.2335 8.79805 2.72727Z" fill="currentColor"/>
<path fill-rule="evenodd" clip-rule="evenodd" d="M3.59805 6.13636C2.88008 6.13636 2.29805 6.74688 2.29805 7.5C2.29805 8.25311 2.88008 8.86364 3.59805 8.86364C4.31602 8.86364 4.89805 8.25311 4.89805 7.5C4.89805 6.74688 4.31602 6.13636 3.59805 6.13636ZM0.998047 7.5C0.998047 5.99377 2.16211 4.77273 3.59805 4.77273C5.03399 4.77273 6.19805 5.99377 6.19805 7.5C6.19805 9.00623 5.03399 10.2273 3.59805 10.2273C2.16211 10.2273 0.998047 9.00623 0.998047 7.5Z" fill="currentColor"/>
<path fill-rule="evenodd" clip-rule="evenodd" d="M11.398 10.9091C10.6801 10.9091 10.098 11.5196 10.098 12.2727C10.098 13.0258 10.6801 13.6364 11.398 13.6364C12.116 13.6364 12.698 13.0258 12.698 12.2727C12.698 11.5196 12.116 10.9091 11.398 10.9091ZM8.79805 12.2727C8.79805 10.7665 9.96211 9.54545 11.398 9.54545C12.834 9.54545 13.998 10.7665 13.998 12.2727C13.998 13.779 12.834 15 11.398 15C9.96211 15 8.79805 13.779 8.79805 12.2727Z" fill="currentColor"/>
<path fill-rule="evenodd" clip-rule="evenodd" d="M4.71994 8.18626C4.90068 7.86092 5.29864 7.75086 5.60881 7.94045L10.0483 10.6541C10.3585 10.8437 10.4634 11.2611 10.2827 11.5865C10.1019 11.9118 9.70395 12.0219 9.39379 11.8323L4.95429 9.11864C4.64412 8.92905 4.5392 8.51161 4.71994 8.18626Z" fill="currentColor"/>
<path fill-rule="evenodd" clip-rule="evenodd" d="M10.2759 3.41316C10.4569 3.73839 10.3522 4.1559 10.0422 4.3457L5.60917 7.05933C5.29911 7.24913 4.90109 7.13934 4.72015 6.81411C4.53921 6.48888 4.64388 6.07137 4.95393 5.88158L9.38693 3.16794C9.69698 2.97814 10.095 3.08793 10.2759 3.41316Z" fill="currentColor"/>
</svg>
