<svg width="196" height="46" viewBox="0 0 196 46" fill="none" xmlns="http://www.w3.org/2000/svg">
    <path d="M194 33V28.5188H186.028V8.64424H180.816V33H194ZM172.503 24.3113H168.96L170.834 15.4173L172.503 24.3113ZM179.453 33L173.798 8.64424H167.972L162.283 33H167.154L168.176 28.1767H173.218L174.24 33H179.453ZM161.669 33V28.4162H153.357V22.3273H159.08V18.3592H153.357V13.0228H161.669V8.64424H148.144V33H161.669ZM139.048 23.8666C139.048 26.2611 137.924 27.6636 135.471 27.6636H132.405V8.37058H135.471C137.924 8.37058 139.048 9.77309 139.048 12.1676V23.8666ZM145.453 24.3455V11.9966C145.453 7.00228 142.148 3 135.948 3H126V33H135.948C142.148 33 145.453 29.4082 145.453 24.3455Z" fill="#1A1A1A"/>
    <path d="M125 32.7961V28.3454H116.992V8.60589H111.756V32.7961H125ZM103.44 24.1665H99.8465L101.729 15.333L103.44 24.1665ZM110.387 32.7961L104.706 8.60589H98.8541L93.1389 32.7961H98.0327L99.0594 28.0057H104.124L105.151 32.7961H110.387ZM92.5229 32.7961V28.2435H84.1726V22.1959H89.922V18.2548H84.1726V12.9547H92.5229V8.60589H78.9366V32.7961H92.5229ZM69.3885 13.5663C69.3885 15.3669 68.4987 16.2163 66.8218 16.2163H63.4338V8.02831H67.0956C68.7725 8.02831 69.3885 8.97962 69.3885 10.4405V13.5663ZM77.0201 32.966V31.0974C76.1988 30.3839 75.7539 29.4326 75.7539 28.0396V23.1812C75.7539 21.1087 74.4534 18.9003 71.7499 18.2548C74.4534 17.5413 75.617 15.7067 75.617 13.2945V10.0668C75.617 5.78596 72.6739 3 67.8143 3H57V32.7961H63.4338V20.6331H66.8903C68.7383 20.6331 69.5596 21.9921 69.5596 23.5549V28.4473C69.5596 31.2333 70.5521 33 73.153 33H77.0201V32.966Z" fill="#D93831"/>
    <path d="M31.9414 8.63781V18.7175H25.9193V8.63781H20.743V32.9658H25.9193V23.2278H31.9414V33H37.1178V8.63781H31.9414ZM40.6025 8.63781V32.9658H54V28.3872H45.745V22.3052H51.4288V18.3417H45.745V13.0114H54V8.63781H40.6025ZM2 3V8.50114H8.42811V32.9658H14.7885V8.50114H21.149V3H2Z" fill="#1A1A1A"/>
    <path d="M61.3738 44.9657H60V39.1029H62.4728C62.988 39.1029 63.5375 39.1029 63.9839 39.4114C64.4648 39.72 64.7395 40.3029 64.7395 40.8857C64.7395 41.5371 64.3617 42.1543 63.7092 42.3943L64.8082 45H63.2971L62.4041 42.6686H61.3738V44.9657ZM61.3738 41.6057H62.1293C62.4041 41.6057 62.7132 41.64 62.9536 41.5029C63.1597 41.3657 63.2971 41.0914 63.2971 40.8171C63.2971 40.5771 63.1597 40.3371 62.9536 40.2343C62.7132 40.0971 62.3354 40.1314 62.0607 40.1314H61.3738V41.6057ZM67.0062 40.2V41.4H69.2386V42.4971H67.0062V43.8H69.8225V44.9314H65.6325V39.0686H69.8225V40.2H67.0062ZM75.4549 44.9657H73.9781L73.6347 43.7657H71.7458L71.368 44.9657H70.1659L72.0549 39.1029H73.6347L75.4549 44.9657ZM73.2913 42.6686L72.6731 40.6114L72.0549 42.6686H73.2913ZM79.8167 43.8V44.9657H76.0731V39.1029H77.4469V43.8H79.8167ZM84.3501 40.2V41.4H86.5825V42.4971H84.3501V43.8H87.1664V44.9314H82.9764V39.0686H87.1664V40.2H84.3501ZM90.9442 40.7486C90.7725 40.2686 90.4634 40.0629 89.9483 40.0629C89.5705 40.0629 89.124 40.1657 89.124 40.6114C89.124 41.0229 89.6392 41.1257 89.9826 41.1943C90.4634 41.2971 91.116 41.4 91.5281 41.6743C92.0089 41.9829 92.2837 42.4629 92.2837 43.0457C92.2837 43.6286 92.0089 44.1771 91.5624 44.52C91.0816 44.8971 90.4634 45 89.8452 45C88.7462 45 87.7502 44.52 87.4755 43.3886L88.7462 43.1143C88.9179 43.7314 89.3644 43.9371 89.9826 43.9371C90.3604 43.9371 90.9099 43.8 90.9099 43.32C90.9099 42.84 90.2574 42.7371 89.8796 42.6686C88.8492 42.4629 87.8189 42.1543 87.8189 40.8514C87.8189 40.3029 88.025 39.8229 88.4371 39.48C88.8492 39.1371 89.3644 39 89.9139 39C90.9442 39 91.7685 39.3429 92.1463 40.3714L90.9442 40.7486ZM97.0232 40.2343H95.5464V44.9314H94.1726V40.2343H92.6958V39.0686H97.0232V40.2343ZM102.037 44.9657H100.561L100.217 43.7657H98.3283L97.9505 44.9657H96.7484L98.6374 39.1029H100.217L102.037 44.9657ZM99.8738 42.6686L99.2556 40.6114L98.6374 42.6686H99.8738ZM106.056 40.2343H104.579V44.9314H103.205V40.2343H101.728V39.0686H106.056V40.2343ZM108.116 40.2V41.4H110.349V42.4971H108.116V43.8H110.933V44.9314H106.743V39.0686H110.933V40.2H108.116ZM118.832 44.9657H117.664L115.397 41.0229H115.363V44.9657H114.298V39.1029H115.775L117.733 42.5657V39.1029H118.798V44.9657H118.832ZM121.339 40.2V41.4H123.571V42.4971H121.339V43.8H124.155V44.9314H119.965V39.0686H124.155V40.2H121.339ZM130.578 44.9657H129.238L128.277 41.0914H128.242L127.315 44.9657H125.975L124.464 39.1029H125.872L126.765 43.0457L127.727 39.1029H128.998L129.994 43.0457H130.028L130.062 42.7714L130.921 39.0686H132.054L130.578 44.9657ZM135.661 40.7486C135.489 40.2686 135.18 40.0629 134.665 40.0629C134.287 40.0629 133.84 40.1657 133.84 40.6114C133.84 41.0229 134.355 41.1257 134.699 41.1943C135.18 41.2971 135.832 41.4 136.244 41.6743C136.725 41.9829 137 42.4629 137 43.0457C137 43.6286 136.725 44.1771 136.279 44.52C135.798 44.8971 135.18 45 134.562 45C133.463 45 132.467 44.52 132.192 43.3886L133.463 43.1143C133.634 43.7314 134.081 43.9371 134.699 43.9371C135.077 43.9371 135.626 43.8 135.626 43.32C135.626 42.84 134.974 42.7371 134.596 42.6686C133.566 42.4629 132.535 42.1543 132.535 40.8514C132.535 40.3029 132.741 39.8229 133.153 39.48C133.566 39.1371 134.081 39 134.63 39C135.661 39 136.485 39.3429 136.863 40.3714L135.661 40.7486Z" fill="#1A1A1A"/>
</svg>
