<svg width="6" height="10" viewBox="0 0 6 10" fill="none" xmlns="http://www.w3.org/2000/svg">
    <path d="M4.13826 4.66179C3.30017 3.87608 2.46207 3.09036 1.67636 2.35703C1.20493 1.93798 0.733503 1.46655 0.262074 1.0475C0.157312 0.995124 0.104931 0.890362 0.0525502 0.7856C-0.0522117 0.576076 0.000169265 0.314172 0.157312 0.157029C0.366836 -0.000114038 0.628741 -0.052495 0.838265 0.104648C0.943026 0.104648 0.995407 0.157029 1.04779 0.20941C2.46207 1.51893 3.87636 2.82846 5.29065 4.13798C5.65731 4.45227 5.65731 4.76655 5.29065 5.13322C3.87636 6.44274 2.46207 7.75227 1.04779 9.06179C0.785884 9.32369 0.471598 9.32369 0.209693 9.11417C0.000169265 8.95703 -0.0522117 8.59036 0.104931 8.38084C0.157312 8.27608 0.262074 8.17131 0.366836 8.11893C1.5716 6.96655 2.77636 5.86655 4.0335 4.71417C4.0335 4.71417 4.08588 4.66179 4.13826 4.66179Z" fill="currentColor"/>
</svg>
