<svg xmlns="http://www.w3.org/2000/svg" width="20" height="16" viewBox="0 0 20 16" fill="none">
    <path d="M0.750047 14.4999H19.25C19.6642 14.4999 20 14.8357 20 15.25C20 15.6297 19.7178 15.9435 19.3517 15.9932L19.25 16H0.750047C0.335807 16 0 15.6642 0 15.25C0 14.8703 0.282171 14.5565 0.64827 14.5068L0.750047 14.4999ZM16.2504 0C17.2169 0 18.0005 0.783532 18.0005 1.75007V11.2506C18.0005 12.2172 17.2169 13.0007 16.2504 13.0007H3.74961C2.78305 13.0007 1.9995 12.2172 1.9995 11.2506V1.75007C1.9995 0.783532 2.78305 0 3.74961 0H16.2504ZM16.2504 1.50006H3.74961C3.61153 1.50006 3.49959 1.61199 3.49959 1.75007V11.2506C3.49959 11.3887 3.61153 11.5007 3.74961 11.5007H16.2504C16.3885 11.5007 16.5004 11.3887 16.5004 11.2506V1.75007C16.5004 1.61199 16.3885 1.50006 16.2504 1.50006Z" fill="#070707"/>
</svg>