<svg xmlns="http://www.w3.org/2000/svg" width="25" height="24" viewBox="0 0 25 24" fill="none">
    <path fill-rule="evenodd" clip-rule="evenodd" d="M8.74694 0.656769C11.3932 -0.239879 14.3621 -0.220511 16.9953 0.727718C18.4566 1.25666 19.793 2.08233 20.9384 3.12088C20.5566 3.52726 20.1419 3.90784 19.7469 4.30132C18.9964 5.0367 18.246 5.77206 17.4955 6.50741C16.7517 5.81076 15.8432 5.28182 14.8558 4.98509C13.6972 4.64322 12.4465 4.59161 11.2616 4.84316C9.87918 5.13346 8.59553 5.843 7.6015 6.83641C6.79841 7.62983 6.19276 8.6103 5.82415 9.66819C4.48782 8.64901 3.1515 7.63627 1.80859 6.61709C3.22391 3.84333 5.7649 1.65661 8.74694 0.656769Z" fill="#D93831"/>
    <path fill-rule="evenodd" clip-rule="evenodd" d="M0.748007 9.62286C0.965244 8.57788 1.32073 7.55867 1.81445 6.604C3.15075 7.62318 4.48707 8.63592 5.82998 9.6551C5.30335 11.1581 5.30335 12.8288 5.82998 14.3253C4.49365 15.3445 3.15736 16.3637 1.82103 17.3764C0.583442 15.0091 0.208219 12.2289 0.748007 9.62286Z" fill="#FBBC05"/>
    <path fill-rule="evenodd" clip-rule="evenodd" d="M12.7488 9.74561C16.5866 9.74561 20.4309 9.74561 24.2689 9.74561C24.6505 11.8549 24.565 14.0546 23.9594 16.1187C23.3998 18.0088 22.34 19.7633 20.8588 21.0986C19.562 20.1117 18.2652 19.1247 16.9684 18.1378C18.252 17.2928 19.1605 15.9252 19.4172 14.4287C17.1922 14.4287 14.9672 14.4287 12.7422 14.4287C12.7488 12.8677 12.7488 11.3066 12.7488 9.74561Z" fill="#4285F4"/>
    <path fill-rule="evenodd" clip-rule="evenodd" d="M1.80859 17.3832C3.14492 16.3704 4.48124 15.3512 5.81754 14.332C6.33101 15.8092 7.31843 17.1187 8.62185 18.0153C9.43813 18.5765 10.3729 18.9765 11.3471 19.17C12.3082 19.3635 13.3022 19.3377 14.2699 19.1764C15.231 19.0087 16.1592 18.6668 16.9689 18.1314C18.2657 19.1183 19.5626 20.1053 20.8594 21.0922C19.4572 22.363 17.6996 23.2274 15.8432 23.6466C13.7894 24.1046 11.6171 24.1175 9.57637 23.5822C7.95698 23.1629 6.43635 22.4082 5.12635 21.3825C3.75054 20.3117 2.60513 18.9313 1.80859 17.3832Z" fill="#44AA88"/>
</svg>