<svg width="20px" height="20px" viewBox="0 0 20 20" version="1.1" xmlns="http://www.w3.org/2000/svg" xmlns:xlink="http://www.w3.org/1999/xlink">
    <title>instagramSVG</title>
    <g id="Social-Icons" stroke="none" stroke-width="1" fill="none" fill-rule="evenodd">
        <g id="Artboard" transform="translate(-239.000000, -72.000000)" fill="currentColor">
            <g id="instagram" transform="translate(239.000000, 72.000000)">
                <path d="M16.1347601,0 L3.86523989,0 C1.73447789,0 0,1.73330198 0,3.86523989 L0,16.1347601 C0,18.266698 1.73447789,20 3.86523989,20 L16.1347601,20 C18.2655221,20 20,18.266698 20,16.1347601 L20,3.86523989 C20,1.73330198 18.2655221,0 16.1347601,0 L16.1347601,0 Z M17.24365,2.30597366 L17.6857949,2.30362183 L17.6857949,5.69379116 L14.3062088,5.70437441 L14.2944497,2.31420508 L17.24365,2.30597366 L17.24365,2.30597366 Z M7.14604892,7.94684854 C7.78574788,7.06020696 8.8252587,6.47930386 10,6.47930386 C11.1747413,6.47930386 12.2142521,7.06020696 12.8539511,7.94684854 C13.2714017,8.52539981 13.5206961,9.23330198 13.5206961,10 C13.5206961,11.9402634 11.9414393,13.5195202 10,13.5195202 C8.05973659,13.5195202 6.48047977,11.9402634 6.48047977,10 C6.48047977,9.23330198 6.72977422,8.52539981 7.14604892,7.94684854 L7.14604892,7.94684854 Z M18.0515052,16.1347601 C18.0515052,17.1919097 17.1919097,18.0515052 16.1347601,18.0515052 L3.86523989,18.0515052 C2.80809031,18.0515052 1.94849483,17.1919097 1.94849483,16.1347601 L1.94849483,7.94684854 L4.93532455,7.94684854 C4.67662277,8.58184384 4.53198495,9.27445908 4.53198495,10 C4.53198495,13.0150517 6.98494826,15.469191 10,15.469191 C13.0162277,15.469191 15.469191,13.0150517 15.469191,10 C15.469191,9.27445908 15.3222013,8.58184384 15.0658514,7.94684854 L18.0515052,7.94684854 L18.0515052,16.1347601 L18.0515052,16.1347601 Z" id="Shape"></path>
            </g>
        </g>
    </g>
</svg>
