<svg width="54" height="26" viewBox="0 0 54 26" fill="none" xmlns="http://www.w3.org/2000/svg">
<path d="M33.0564 25.9768C29.4321 25.9768 25.8078 25.9768 22.1835 25.9768C19.8483 25.9768 18.2672 24.8645 17.7808 22.7558C17.6105 22.0374 17.6591 21.2032 17.8294 20.4617C19.0213 15.2941 20.2375 10.1497 21.4781 4.98217C22.2078 1.85383 24.6645 0 28.0456 0C35.1483 0 42.2754 0 49.3781 0C50.57 0 51.6402 0.231729 52.5159 0.996435C53.951 2.24777 54.2186 3.82353 53.8294 5.5615C52.7348 10.6132 51.6402 15.6881 50.57 20.7629C49.8889 23.984 47.3835 26 43.9294 26C40.3294 25.9768 36.6808 25.9768 33.0564 25.9768ZM48.551 18.5615C48.5997 18.4456 48.624 18.3993 48.624 18.3529C49.5727 13.9037 50.5213 9.43137 51.47 4.98217C51.8591 3.17469 51.1051 2.27094 49.1835 2.27094C42.1294 2.27094 35.0754 2.27094 28.0213 2.27094C25.8078 2.27094 24.2997 3.40642 23.8132 5.46881C22.597 10.6595 21.3564 15.8503 20.1402 21.041C19.751 22.7094 20.5537 23.6827 22.3294 23.6827C29.5781 23.6827 36.8267 23.6827 44.0997 23.6827C44.6105 23.6827 45.1456 23.59 45.6321 23.4046C46.8727 22.9643 47.6997 22.1301 48.0645 20.8556C47.7727 20.8556 47.5537 20.8556 47.3105 20.8556C41.6429 20.8556 35.9754 20.8556 30.2835 20.8556C29.9429 20.8556 29.5294 20.8556 29.2862 20.6934C28.9943 20.4848 28.7024 20.0909 28.7024 19.7897C28.7024 19.4652 28.9699 19.025 29.2618 18.8164C29.5294 18.6078 29.9916 18.5847 30.3564 18.5847C34.9781 18.5615 39.5997 18.5847 44.2213 18.5847C45.6564 18.5615 47.0916 18.5615 48.551 18.5615Z" fill="white"/>
<path d="M6.47027 14.0194C4.79189 14.0194 3.11351 14.0194 1.43514 14.0194C0.55946 14.0194 0 13.5792 0 12.8608C0 12.1656 0.535135 11.7021 1.43514 11.7021C4.79189 11.7021 8.14865 11.7021 11.5054 11.7021C12.4054 11.7021 12.9649 12.1424 12.9649 12.8376C12.9892 13.556 12.4054 14.0194 11.4811 14.0194C9.82703 14.0194 8.14865 14.0194 6.47027 14.0194Z" fill="white"/>
<path d="M10.8247 4.86638C9.19494 4.86638 7.54089 4.86638 5.91116 4.86638C5.66792 4.86638 5.42467 4.84321 5.18143 4.79686C4.62197 4.65783 4.33008 4.26389 4.33008 3.73091C4.33008 3.19793 4.62197 2.80399 5.18143 2.66496C5.40035 2.61861 5.61927 2.57227 5.83819 2.57227C9.17062 2.57227 12.4787 2.57227 15.8112 2.57227C15.9085 2.57227 16.0058 2.57227 16.103 2.57227C16.8085 2.64178 17.2949 3.12842 17.2706 3.75408C17.2706 4.37975 16.7841 4.84321 16.0544 4.86638C15.5679 4.88956 15.0814 4.86638 14.5949 4.86638C13.3301 4.88956 12.0895 4.86638 10.8247 4.86638Z" fill="white"/>
<path d="M8.39159 23.173C6.73754 23.173 5.05916 23.173 3.4051 23.173C2.5051 23.173 1.96997 22.7791 1.94564 22.1071C1.92132 21.5509 2.23753 21.0875 2.82132 20.9484C3.04024 20.9021 3.25916 20.8789 3.47808 20.8789C6.78618 20.8789 10.07 20.8789 13.3781 20.8789C14.2294 20.8789 14.7402 21.2033 14.8375 21.8058C14.9835 22.5937 14.424 23.173 13.4754 23.173C11.797 23.1962 10.0943 23.173 8.39159 23.173Z" fill="white"/>
<path d="M43.5646 7.8092C43.589 8.24948 43.2727 8.59708 42.8106 8.80563C40.7917 9.63986 38.7727 10.4741 36.7295 11.2388C36.3646 11.3778 35.8295 11.3083 35.4646 11.1461C33.8592 10.4046 32.3025 9.61668 30.7214 8.8288C30.016 8.48121 29.7484 7.83237 30.0403 7.25305C30.3808 6.62738 31.0376 6.44199 31.7917 6.78959C33.1295 7.41526 34.443 8.11044 35.7808 8.71294C36.0484 8.8288 36.4376 8.85198 36.7295 8.73611C38.3835 8.11044 39.989 7.41526 41.643 6.76642C42.689 6.37248 43.5646 6.81276 43.5646 7.8092Z" fill="white"/>
<path d="M43.8321 16.3604C43.3456 16.3604 42.8591 16.3836 42.3726 16.3604C41.6916 16.3372 41.2294 15.8969 41.2051 15.2713C41.1807 14.6456 41.6186 14.1358 42.2753 14.0894C43.3213 14.0431 44.3672 14.0431 45.4132 14.0894C46.0943 14.1126 46.5807 14.6688 46.5321 15.2944C46.4834 15.8969 45.997 16.314 45.3159 16.3604C45.2672 16.3604 45.2429 16.3604 45.1943 16.3604C44.7564 16.3604 44.2943 16.3604 43.8321 16.3604Z" fill="white"/>
<path d="M25.5409 19.7204C25.5409 20.3461 25.0301 20.8559 24.349 20.8559C23.7166 20.8559 23.1571 20.3229 23.1814 19.6973C23.1814 19.0948 23.7166 18.6081 24.349 18.585C25.0301 18.6081 25.5409 19.0948 25.5409 19.7204Z" fill="white"/>
</svg>
