<svg width="26" height="34" viewBox="0 0 26 34" fill="none" xmlns="http://www.w3.org/2000/svg">
<path d="M0.877271 21.0891C0.810985 16.2557 2.73327 12.2831 5.98127 8.84021C11.2178 3.27856 17.6476 0.365321 25.2704 0.100479C25.4693 0.100479 25.7344 0.232899 25.9996 0.29911C25.9333 0.56395 25.9333 0.828793 25.8007 0.961212C24.6738 2.41783 23.4144 3.74203 22.3538 5.19866C21.5584 6.25802 20.8293 7.31738 20.2327 8.50916C19.3047 10.4293 19.835 11.6872 21.691 12.548C24.6076 14.137 25.867 16.653 25.9996 19.7649C26.1321 24.3334 24.6738 28.2398 21.1607 31.2192C17.1836 34.5959 11.019 34.8608 6.44527 32.0137C2.53441 29.6302 1.07613 25.9224 0.943557 21.4863C0.877271 21.4201 0.877271 21.2877 0.877271 21.0891Z" fill="#D93831"/>
</svg>
